<svg xmlns="http://www.w3.org/2000/svg" xmlns:xlink="http://www.w3.org/1999/xlink" width="1920" zoomAndPan="magnify" viewBox="0 0 1440 487.499991" height="650" preserveAspectRatio="xMidYMid meet" version="1.0"><defs><g/><clipPath id="87d16707cb"><rect x="0" width="397" y="0" height="341"/></clipPath><clipPath id="d751bab444"><rect x="0" width="607" y="0" height="347"/></clipPath><clipPath id="d08e8f578f"><path d="M 1254 306 L 1403.644531 306 L 1403.644531 470.835938 L 1254 470.835938 Z M 1254 306 " clip-rule="nonzero"/></clipPath><clipPath id="e2a5bc1f2c"><path d="M 954.851562 306 L 1104 306 L 1104 470.835938 L 954.851562 470.835938 Z M 954.851562 306 " clip-rule="nonzero"/></clipPath><clipPath id="f9a3563a62"><path d="M 1238 22.046875 L 1403.644531 22.046875 L 1403.644531 187 L 1238 187 Z M 1238 22.046875 " clip-rule="nonzero"/></clipPath><clipPath id="e9bf6fb6ca"><path d="M 954.851562 22.046875 L 1120 22.046875 L 1120 187 L 954.851562 187 Z M 954.851562 22.046875 " clip-rule="nonzero"/></clipPath><clipPath id="80e896ff74"><rect x="0" width="387" y="0" height="415"/></clipPath></defs><g transform="matrix(1, 0, 0, 1, 982, 146)"><g clip-path="url(#87d16707cb)"><g fill="#fbb316" fill-opacity="1"><g transform="translate(0.62417, 274.483194)"><g><path d="M 94.453125 -273.015625 L 94.453125 0 L 24.71875 0 L 24.71875 -273.015625 Z M 94.453125 -273.015625 "/></g></g></g><g fill="#fbb316" fill-opacity="1"><g transform="translate(119.77409, 274.483194)"><g><path d="M 114 -273.015625 C 147.445312 -273.015625 174.132812 -267.476562 194.0625 -256.40625 C 213.738281 -245.09375 229.171875 -229.101562 240.359375 -208.4375 C 251.554688 -187.78125 257.15625 -163.800781 257.15625 -136.5 C 257.15625 -92.226562 244.914062 -58.410156 220.4375 -35.046875 C 195.96875 -11.679688 162.085938 0 118.796875 0 L 21.03125 0 L 21.03125 -273.015625 Z M 187.421875 -136.140625 C 187.421875 -160.242188 181.703125 -178.875 170.265625 -192.03125 C 158.828125 -205.1875 142.898438 -211.765625 122.484375 -211.765625 L 90.765625 -211.765625 L 90.765625 -61.25 L 122.125 -61.25 C 142.53125 -61.25 158.515625 -67.640625 170.078125 -80.421875 C 181.640625 -93.210938 187.421875 -111.785156 187.421875 -136.140625 Z M 187.421875 -136.140625 "/></g></g></g></g></g><g transform="matrix(1, 0, 0, 1, 327, 140)"><g clip-path="url(#d751bab444)"><g fill="#1b194d" fill-opacity="1"><g transform="translate(0.938417, 282.960595)"><g><path d="M 119.59375 -45.03125 C 127.707031 -45.03125 134.65625 -46.566406 140.4375 -49.640625 C 146.21875 -52.710938 151.691406 -57.570312 156.859375 -64.21875 L 219.609375 -64.21875 C 209.765625 -41.832031 196.046875 -24.425781 178.453125 -12 C 160.859375 0.425781 141.238281 6.640625 119.59375 6.640625 C 100.144531 6.640625 82.113281 1.84375 65.5 -7.75 C 48.894531 -17.34375 35.671875 -30.441406 25.828125 -47.046875 C 15.992188 -63.660156 11.078125 -81.9375 11.078125 -101.875 C 11.078125 -121.3125 15.875 -139.457031 25.46875 -156.3125 C 35.0625 -173.164062 48.039062 -186.632812 64.40625 -196.71875 C 80.769531 -206.8125 98.796875 -211.859375 118.484375 -211.859375 C 138.660156 -211.859375 156.988281 -206.9375 173.46875 -197.09375 C 189.957031 -187.25 202.9375 -173.835938 212.40625 -156.859375 C 221.882812 -139.878906 226.625 -120.9375 226.625 -100.03125 C 226.625 -94.125 226.128906 -88.707031 225.140625 -83.78125 L 71.609375 -83.78125 C 73.328125 -72.21875 78.613281 -62.867188 87.46875 -55.734375 C 96.332031 -48.597656 107.039062 -45.03125 119.59375 -45.03125 Z M 118.484375 -160.1875 C 107.160156 -160.1875 97.253906 -157.046875 88.765625 -150.765625 C 80.273438 -144.492188 74.800781 -135.945312 72.34375 -125.125 L 165.359375 -125.125 C 162.890625 -135.707031 157.410156 -144.195312 148.921875 -150.59375 C 140.441406 -156.988281 130.296875 -160.1875 118.484375 -160.1875 Z M 118.484375 -160.1875 "/></g></g></g><g fill="#1b194d" fill-opacity="1"><g transform="translate(239.365888, 282.960595)"><g><path d="M 79.359375 -204.84375 L 79.359375 -183.078125 L 80.09375 -183.078125 C 85.257812 -193.648438 92.023438 -201.085938 100.390625 -205.390625 C 108.753906 -209.703125 119.085938 -211.859375 131.390625 -211.859375 L 131.390625 -150.21875 C 113.921875 -149.976562 101.492188 -146.78125 94.109375 -140.625 C 86.734375 -134.46875 83.046875 -125.238281 83.046875 -112.9375 L 83.046875 0 L 21.78125 0 L 21.78125 -204.84375 Z M 79.359375 -204.84375 "/></g></g></g><g fill="#1b194d" fill-opacity="1"><g transform="translate(381.094053, 282.960595)"><g><path d="M 83.421875 -273.125 L 83.421875 -226.625 L 22.140625 -226.625 L 22.140625 -273.125 Z M 83.421875 -204.84375 L 83.421875 0 L 22.140625 0 L 22.140625 -204.84375 Z M 83.421875 -204.84375 "/></g></g></g><g fill="#1b194d" fill-opacity="1"><g transform="translate(486.651699, 282.960595)"><g><path d="M 1.46875 -158.34375 L 1.46875 -204.84375 L 24.359375 -204.84375 L 24.359375 -213.34375 C 24.359375 -234.988281 30.507812 -251.222656 42.8125 -262.046875 C 55.113281 -272.878906 75.171875 -278.296875 102.984375 -278.296875 L 111.46875 -278.296875 L 111.46875 -232.15625 L 109.25 -232.15625 C 100.882812 -232.15625 94.851562 -230.675781 91.15625 -227.71875 C 87.46875 -224.769531 85.625 -219.238281 85.625 -211.125 L 85.625 -204.84375 L 111.46875 -204.84375 L 111.46875 -158.34375 L 85.625 -158.34375 L 85.625 0 L 24.359375 0 L 24.359375 -158.34375 Z M 1.46875 -158.34375 "/></g></g></g></g></g><path stroke-linecap="butt" transform="matrix(0.749232, 0, 0, 0.749232, 167.310645, 447.571845)" fill="none" stroke-linejoin="miter" d="M 0.00247641 16.499238 L 698.197049 16.499238 " stroke="#1b194d" stroke-width="33" stroke-opacity="1" stroke-miterlimit="4"/><g clip-path="url(#d08e8f578f)"><path fill="#fbb316" d="M 1388.378906 306.078125 C 1380.113281 306.078125 1373.429688 312.765625 1373.429688 321.027344 L 1373.429688 440.621094 L 1269.703125 440.621094 C 1261.441406 440.621094 1254.753906 447.308594 1254.753906 455.570312 C 1254.753906 463.832031 1261.441406 470.519531 1269.703125 470.519531 L 1388.378906 470.519531 C 1396.640625 470.519531 1403.328125 463.832031 1403.328125 455.570312 L 1403.328125 321.027344 C 1403.328125 312.765625 1396.640625 306.078125 1388.378906 306.078125 Z M 1388.378906 306.078125 " fill-opacity="1" fill-rule="nonzero"/></g><g clip-path="url(#e2a5bc1f2c)"><path fill="#fbb316" d="M 969.800781 470.519531 L 1088.46875 470.519531 C 1096.722656 470.519531 1103.417969 463.832031 1103.417969 455.570312 C 1103.417969 447.308594 1096.722656 440.621094 1088.46875 440.621094 L 984.75 440.621094 L 984.75 321.027344 C 984.75 312.765625 978.058594 306.078125 969.800781 306.078125 C 961.546875 306.078125 954.851562 312.765625 954.851562 321.027344 L 954.851562 455.570312 C 954.851562 463.832031 961.546875 470.519531 969.800781 470.519531 Z M 969.800781 470.519531 " fill-opacity="1" fill-rule="nonzero"/></g><g clip-path="url(#f9a3563a62)"><path fill="#fbb316" d="M 1388.378906 22.046875 L 1253.835938 22.046875 C 1245.574219 22.046875 1238.886719 28.734375 1238.886719 36.996094 C 1238.886719 45.257812 1245.574219 51.945312 1253.835938 51.945312 L 1373.429688 51.945312 L 1373.429688 171.539062 C 1373.429688 179.800781 1380.113281 186.488281 1388.378906 186.488281 C 1396.640625 186.488281 1403.328125 179.800781 1403.328125 171.539062 L 1403.328125 36.996094 C 1403.328125 28.734375 1396.640625 22.046875 1388.378906 22.046875 Z M 1388.378906 22.046875 " fill-opacity="1" fill-rule="nonzero"/></g><g clip-path="url(#e9bf6fb6ca)"><path fill="#fbb316" d="M 969.800781 186.488281 C 978.058594 186.488281 984.75 179.800781 984.75 171.539062 L 984.75 51.945312 L 1104.34375 51.945312 C 1112.601562 51.945312 1119.292969 45.257812 1119.292969 36.996094 C 1119.292969 28.734375 1112.601562 22.046875 1104.34375 22.046875 L 969.800781 22.046875 C 961.546875 22.046875 954.851562 28.734375 954.851562 36.996094 L 954.851562 171.539062 C 954.851562 179.800781 961.546875 186.488281 969.800781 186.488281 Z M 969.800781 186.488281 " fill-opacity="1" fill-rule="nonzero"/></g><g transform="matrix(1, 0, 0, 1, 13, 72)"><g clip-path="url(#80e896ff74)"><g fill="#1b194d" fill-opacity="1"><g transform="translate(0.505462, 396.653222)"><g><path d="M 111.546875 -393.046875 L 190.671875 -117.375 L 191.734375 -117.375 L 271.40625 -393.046875 L 374.984375 -393.046875 L 243.265625 0 L 139.6875 0 L 8.5 -393.046875 Z M 111.546875 -393.046875 "/></g></g></g></g></g><path stroke-linecap="butt" transform="matrix(0.749232, -0.000000000000000093, 0.000000000000000093, 0.749232, 690.422468, 447.888752)" fill="none" stroke-linejoin="miter" d="M -0.000791124 16.49857 L 951.515848 16.49857 " stroke="#fbb316" stroke-width="33" stroke-opacity="1" stroke-miterlimit="4"/></svg>